<svg xmlns="http://www.w3.org/2000/svg" viewBox="0 0 620 360" style="font-family: 'Courier New', monospace; background: #1e1e1e; border-radius: 10px;">
  <!-- Title bar -->
  <rect x="0" y="0" width="620" height="30" rx="10" fill="#2d2d2d"/>
  <circle cx="20" cy="15" r="6" fill="#FF5F56"/><circle cx="38" cy="15" r="6" fill="#FFBD2E"/><circle cx="56" cy="15" r="6" fill="#27C93F"/>
  <text x="80" y="20" font-size="12" fill="#ccc">BadController.java</text>

  <!-- Line numbers -->
  <text x="15" y="55" font-size="11" fill="#555">1</text>
  <text x="15" y="78" font-size="11" fill="#555">2</text>
  <text x="15" y="101" font-size="11" fill="#555">3</text>
  <text x="15" y="124" font-size="11" fill="#555">4</text>
  <text x="15" y="147" font-size="11" fill="#555">5</text>
  <text x="15" y="170" font-size="11" fill="#555">6</text>
  <text x="15" y="193" font-size="11" fill="#555">7</text>
  <text x="15" y="216" font-size="11" fill="#555">8</text>
  <text x="15" y="239" font-size="11" fill="#555">9</text>
  <text x="15" y="262" font-size="11" fill="#555">10</text>
  <text x="15" y="285" font-size="11" fill="#555">11</text>
  <text x="15" y="308" font-size="11" fill="#555">12</text>

  <!-- Code line 1: import -->
  <text x="35" y="55" font-size="11" fill="#569cd6">import org.springframework.web.bind.annotation.*;</text>

  <!-- Code line 2: import EntityManager -->
  <text x="35" y="78" font-size="11" fill="#569cd6">import javax.persistence.*;</text>

  <!-- Code line 3: @RestController -->
  <text x="35" y="101" font-size="11" fill="#c586c0">@RestController</text>

  <!-- Code line 4: class + @PersistenceContext — RED BOX 1 -->
  <rect x="30" y="109" width="400" height="20" rx="3" fill="#F44336" fill-opacity="0.15" stroke="#F44336" stroke-width="1.5"/>
  <text x="35" y="124" font-size="11" fill="#ce9178">public class BadController {</text>

  <!-- Code line 5: @PersistenceContext — RED BOX 1 -->
  <rect x="30" y="127" width="560" height="20" rx="3" fill="#F44336" fill-opacity="0.15" stroke="#F44336" stroke-width="1.5"/>
  <text x="35" y="142" font-size="11" fill="#d4d4d4">    @PersistenceContext</text>
  <text x="340" y="142" font-size="10" font-weight="700" fill="#F44336">❌ [1] Controller 直接注入 EntityManager</text>

  <!-- Code line 6: EntityManager field -->
  <text x="35" y="165" font-size="11" fill="#9cdcfe">    private EntityManager em;</text>

  <!-- Code line 7: @PostMapping -->
  <text x="35" y="188" font-size="11" fill="#c586c0">    @PostMapping("/api/orders")</text>

  <!-- Code line 8: createOrder method — RED BOX 2 -->
  <rect x="30" y="195" width="560" height="22" rx="3" fill="#F44336" fill-opacity="0.15" stroke="#F44336" stroke-width="1.5"/>
  <text x="35" y="212" font-size="11" fill="#d4d4d4">    public String createOrder(</text>
  <text x="480" y="212" font-size="10" font-weight="700" fill="#F44336">❌ [2] 無 DTO 轉換</text>

  <!-- Code line 9: body param -->
  <text x="50" y="235" font-size="11" fill="#9cdcfe">        @RequestBody String body) {</text>

  <!-- Code line 10: SQL in controller — RED BOX 3 -->
  <rect x="30" y="242" width="500" height="20" rx="3" fill="#F44336" fill-opacity="0.15" stroke="#F44336" stroke-width="1.5"/>
  <text x="35" y="258" font-size="11" fill="#d4d4d4">        em.createNativeQuery("INSERT INTO orders ...").executeUpdate();</text>
  <text x="440" y="258" font-size="10" font-weight="700" fill="#F44336">❌ [3]</text>

  <!-- Code line 11: System.out.println — RED BOX 4 -->
  <rect x="30" y="265" width="400" height="20" rx="3" fill="#F44336" fill-opacity="0.15" stroke="#F44336" stroke-width="1.5"/>
  <text x="35" y="281" font-size="11" fill="#d4d4d4">        System.out.println("Order created: " + body);</text>
  <text x="420" y="281" font-size="10" font-weight="700" fill="#F44336">❌ [4]</text>

  <!-- Code line 12: return body — RED BOX 5 -->
  <rect x="30" y="288" width="300" height="20" rx="3" fill="#F44336" fill-opacity="0.15" stroke="#F44336" stroke-width="1.5"/>
  <text x="35" y="304" font-size="11" fill="#d4d4d4">        return body;</text>
  <text x="300" y="304" font-size="10" font-weight="700" fill="#F44336">❌ [5] 沒有錯誤處理</text>

  <!-- Violation legend -->
  <rect x="15" y="330" width="590" height="28" rx="6" fill="#2d2d2d"/>
  <text x="25" y="348" font-size="10" fill="#F44336" font-weight="700">❌ Clean Architecture 違規：</text>
  <text x="180" y="348" font-size="10" fill="#F44336">[1] EntityManager in Controller</text>
  <text x="370" y="348" font-size="10" fill="#F44336">[2] No DTO</text>
  <text x="460" y="348" font-size="10" fill="#F44336">[3] SQL in Controller</text>
  <text x="565" y="348" font-size="10" fill="#F44336">[4] println</text>
</svg>