<svg xmlns="http://www.w3.org/2000/svg" viewBox="0 0 900 160" style="font-family: 'Nunito', monospace; background: #1a1a2e; border-radius: 10px;">
  <!-- Title -->
  <text x="450" y="22" text-anchor="middle" font-size="13" font-weight="700" fill="#e0e0e0">✨ The Finale — 全流程實演（8 分鐘完成）</text>

  <!-- 8 steps -->
  <g transform="translate(30, 40)">
    <!-- Step 1 -->
    <rect x="0" y="0" width="100" height="100" rx="8" fill="#1e2a3a" stroke="#2196F3" stroke-width="1.5"/>
    <text x="50" y="18" text-anchor="middle" font-size="9" fill="#2196F3" font-weight="700">Step 1/8</text>
    <text x="50" y="36" text-anchor="middle" font-size="10" fill="#e0e0e0">📋 讀取工單</text>
    <text x="50" y="54" text-anchor="middle" font-size="9" fill="#888">#12345</text>
    <rect x="10" y="68" width="80" height="12" rx="3" fill="#2196F3" fill-opacity="0.2"/>
    <text x="50" y="78" text-anchor="middle" font-size="9" fill="#2196F3">30 秒</text>

    <!-- Arrow -->
    <path d="M105,50 L120,50" stroke="#444" stroke-width="2" fill="none" marker-end="url(#a)"/>

    <!-- Step 2 -->
    <rect x="125" y="0" width="100" height="100" rx="8" fill="#1e2a3a" stroke="#4CAF50" stroke-width="1.5"/>
    <text x="175" y="18" text-anchor="middle" font-size="9" fill="#4CAF50" font-weight="700">Step 2/8</text>
    <text x="175" y="36" text-anchor="middle" font-size="10" fill="#e0e0e0">📚 Wiki 查詢</text>
    <text x="175" y="54" text-anchor="middle" font-size="9" fill="#888">找到 2 篇</text>
    <rect x="135" y="68" width="80" height="12" rx="3" fill="#4CAF50" fill-opacity="0.2"/>
    <text x="175" y="78" text-anchor="middle" font-size="9" fill="#4CAF50">1 分鐘</text>

    <!-- Arrow -->
    <path d="M230,50 L245,50" stroke="#444" stroke-width="2" fill="none" marker-end="url(#a)"/>

    <!-- Step 3 -->
    <rect x="250" y="0" width="100" height="100" rx="8" fill="#1e2a3a" stroke="#FF9800" stroke-width="1.5"/>
    <text x="300" y="18" text-anchor="middle" font-size="9" fill="#FF9800" font-weight="700">Step 3/8</text>
    <text x="300" y="36" text-anchor="middle" font-size="10" fill="#e0e0e0">🔍 分析根因</text>
    <text x="300" y="54" text-anchor="middle" font-size="9" fill="#888">pool=200>100</text>
    <rect x="260" y="68" width="80" height="12" rx="3" fill="#FF9800" fill-opacity="0.2"/>
    <text x="300" y="78" text-anchor="middle" font-size="9" fill="#FF9800">1 分鐘</text>

    <!-- Arrow -->
    <path d="M355,50 L370,50" stroke="#444" stroke-width="2" fill="none" marker-end="url(#a)"/>

    <!-- Step 4 -->
    <rect x="375" y="0" width="100" height="100" rx="8" fill="#1e2a3a" stroke="#E91E63" stroke-width="1.5"/>
    <text x="425" y="18" text-anchor="middle" font-size="9" fill="#E91E63" font-weight="700">Step 4/8</text>
    <text x="425" y="36" text-anchor="middle" font-size="10" fill="#e0e0e0">🔴 TDD 開發</text>
    <text x="425" y="54" text-anchor="middle" font-size="9" fill="#888">🔴→🟢→♻️</text>
    <rect x="385" y="68" width="80" height="12" rx="3" fill="#E91E63" fill-opacity="0.2"/>
    <text x="425" y="78" text-anchor="middle" font-size="9" fill="#E91E63">3 分鐘</text>

    <!-- Arrow -->
    <path d="M480,50 L495,50" stroke="#444" stroke-width="2" fill="none" marker-end="url(#a)"/>

    <!-- Step 5 -->
    <rect x="500" y="0" width="100" height="100" rx="8" fill="#1e2a3a" stroke="#9C27B0" stroke-width="1.5"/>
    <text x="550" y="18" text-anchor="middle" font-size="9" fill="#9C27B0" font-weight="700">Step 5/8</text>
    <text x="550" y="36" text-anchor="middle" font-size="10" fill="#e0e0e0">✅ 執行測試</text>
    <text x="550" y="54" text-anchor="middle" font-size="9" fill="#888">24/24 通過</text>
    <rect x="510" y="68" width="80" height="12" rx="3" fill="#9C27B0" fill-opacity="0.2"/>
    <text x="550" y="78" text-anchor="middle" font-size="9" fill="#9C27B0">1 分鐘</text>

    <!-- Arrow -->
    <path d="M605,50 L620,50" stroke="#444" stroke-width="2" fill="none" marker-end="url(#a)"/>

    <!-- Step 6 -->
    <rect x="625" y="0" width="100" height="100" rx="8" fill="#1e2a3a" stroke="#00BCD4" stroke-width="1.5"/>
    <text x="675" y="18" text-anchor="middle" font-size="9" fill="#00BCD4" font-weight="700">Step 6/8</text>
    <text x="675" y="36" text-anchor="middle" font-size="10" fill="#e0e0e0">👀 AI Review</text>
    <text x="675" y="54" text-anchor="middle" font-size="9" fill="#888">✅⚠️❌</text>
    <rect x="635" y="68" width="80" height="12" rx="3" fill="#00BCD4" fill-opacity="0.2"/>
    <text x="675" y="78" text-anchor="middle" font-size="9" fill="#00BCD4">1 分鐘</text>

    <!-- Arrow -->
    <path d="M730,50 L745,50" stroke="#444" stroke-width="2" fill="none" marker-end="url(#a)"/>

    <!-- Step 7 -->
    <rect x="750" y="0" width="100" height="100" rx="8" fill="#1e2a3a" stroke="#00695C" stroke-width="1.5"/>
    <text x="800" y="18" text-anchor="middle" font-size="9" fill="#00695C" font-weight="700">Step 7/8</text>
    <text x="800" y="36" text-anchor="middle" font-size="10" fill="#e0e0e0">📝 更新 Wiki</text>
    <text x="800" y="54" text-anchor="middle" font-size="9" fill="#888">✅ 三行</text>
    <rect x="760" y="68" width="80" height="12" rx="3" fill="#00695C" fill-opacity="0.2"/>
    <text x="800" y="78" text-anchor="middle" font-size="9" fill="#00695C">30 秒</text>
  </g>

  <defs>
    <marker id="a" markerWidth="8" markerHeight="8" refX="7" refY="3" orient="auto">
      <path d="M0,0 L0,6 L8,3 z" fill="#666"/>
    </marker>
  </defs>
</svg>