<svg xmlns="http://www.w3.org/2000/svg" viewBox="0 0 600 280" style="font-family: 'Nunito', monospace; background: #1a1a2e; border-radius: 10px;">
  <!-- Title bar -->
  <rect x="0" y="0" width="600" height="30" rx="10" fill="#263238"/>
  <circle cx="20" cy="15" r="6" fill="#FF5F56"/><circle cx="38" cy="15" r="6" fill="#FFBD2E"/><circle cx="56" cy="15" r="6" fill="#27C93F"/>
  <text x="20" y="55" font-size="13" font-weight="700" fill="#e0e0e0">📊 CI — Maven Test Report</text>

  <!-- Test summary bar -->
  <rect x="20" y="70" width="560" height="40" rx="8" fill="#1e2a3a"/>
  <text x="40" y="93" font-size="12" font-weight="800" fill="#4CAF50">✅ 24/24 測試通過</text>
  <text x="180" y="93" font-size="11" fill="#888">|</text>
  <text x="200" y="93" font-size="11" fill="#e0e0e0">覆蓋率</text>
  <rect x="260" y="80" width="120" height="20" rx="4" fill="#263238"/>
  <rect x="262" y="82" width="90" height="16" rx="3" fill="#4CAF50"/>
  <text x="310" y="94" text-anchor="middle" font-size="10" font-weight="700" fill="white">89%</text>
  <text x="400" y="93" font-size="11" fill="#888">|</text>
  <text x="420" y="93" font-size="11" fill="#e0e0e0">mvn test</text>
  <text x="490" y="93" font-size="11" fill="#888">|</text>
  <text x="510" y="93" font-size="11" fill="#4CAF50">全部綠燈</text>

  <!-- Test list -->
  <rect x="20" y="120" width="560" height="150" rx="8" fill="#1e2a3a"/>
  <!-- PASS badge -->
  <rect x="30" y="130" width="100" height="22" rx="11" fill="#E8F5E9"/>
  <text x="80" y="145" text-anchor="middle" font-size="10" font-weight="700" fill="#2E7D32">✅ PASS</text>
  <rect x="140" y="132" width="160" height="18" rx="4" fill="#263238"/>
  <text x="150" y="145" font-size="10" fill="#e0e0e0">ConnectionPoolExhaustionTest</text>

  <rect x="310" y="132" width="100" height="18" rx="4" fill="#263238"/>
  <text x="320" y="145" font-size="9" fill="#888">15 tests</text>

  <rect x="420" y="132" width="80" height="18" rx="4" fill="#263238"/>
  <text x="430" y="145" font-size="9" fill="#4CAF50">0.3s</text>

  <rect x="30" y="162" width="100" height="22" rx="11" fill="#E8F5E9"/>
  <text x="80" y="177" text-anchor="middle" font-size="10" font-weight="700" fill="#2E7D32">✅ PASS</text>
  <rect x="140" y="164" width="180" height="18" rx="4" fill="#263238"/>
  <text x="150" y="177" font-size="10" fill="#e0e0e0">OrderApiIntegrationTest</text>

  <rect x="310" y="164" width="100" height="18" rx="4" fill="#263238"/>
  <text x="320" y="177" font-size="9" fill="#888">8 tests</text>

  <rect x="420" y="164" width="80" height="18" rx="4" fill="#263238"/>
  <text x="430" y="177" font-size="9" fill="#4CAF50">1.1s</text>

  <rect x="30" y="194" width="100" height="22" rx="11" fill="#E8F5E9"/>
  <text x="80" y="209" text-anchor="middle" font-size="10" font-weight="700" fill="#2E7D32">✅ PASS</text>
  <rect x="140" y="196" width="140" height="18" rx="4" fill="#263238"/>
  <text x="150" y="209" font-size="10" fill="#e0e0e0">HikariPoolConfigTest</text>

  <rect x="310" y="196" width="100" height="18" rx="4" fill="#263238"/>
  <text x="320" y="209" font-size="9" fill="#888">1 test</text>

  <rect x="420" y="196" width="80" height="18" rx="4" fill="#263238"/>
  <text x="430" y="209" font-size="9" fill="#4CAF50">0.1s</text>

  <!-- JaCoCo bar -->
  <text x="30" y="250" font-size="11" fill="#888">jacoco:report</text>
  <rect x="140" y="238" width="400" height="16" rx="4" fill="#263238"/>
  <rect x="142" y="240" width="356" height="12" rx="3" fill="#4CAF50"/>
  <text x="310" y="250" text-anchor="middle" font-size="10" font-weight="700" fill="white">89%</text>
  <text x="555" y="250" font-size="10" fill="#4CAF50">BUILD SUCCESS</text>
</svg>