<svg xmlns="http://www.w3.org/2000/svg" viewBox="0 0 700 220" style="font-family: 'Nunito', sans-serif; background: #fafafa; border-radius: 10px;">
  <!-- Title -->
  <text x="350" y="28" text-anchor="middle" font-size="15" font-weight="700" fill="#333">結業挑戰紀錄表</text>

  <!-- Header row -->
  <rect x="30" y="45" width="640" height="32" rx="6" fill="#1565C0"/>
  <text x="60" y="66" font-size="11" font-weight="800" fill="white">步驟</text>
  <text x="180" y="66" font-size="11" font-weight="800" fill="white">工具 / Skill</text>
  <text x="320" y="66" font-size="11" font-weight="800" fill="white">截圖</text>
  <text x="440" y="66" font-size="11" font-weight="800" fill="white">耗時</text>
  <text x="540" y="66" font-size="11" font-weight="800" fill="white">完成</text>

  <!-- Rows -->
  <rect x="30" y="82" width="640" height="28" rx="4" fill="white" stroke="#e0e0e0" stroke-width="1"/>
  <text x="60" y="100" font-size="10" fill="#333">1. 讀取工單</text>
  <text x="180" y="100" font-size="10" fill="#1565C0">ado-devops</text>
  <rect x="315" y="88" width="80" height="16" rx="3" fill="#f5f5f5" stroke="#e0e0e0"/>
  <text x="355" y="100" text-anchor="middle" font-size="9" fill="#999">（截圖）</text>
  <rect x="435" y="88" width="60" height="16" rx="3" fill="#f5f5f5" stroke="#e0e0e0"/>
  <rect x="535" y="88" width="20" height="16" rx="3" fill="#f5f5f5" stroke="#e0e0e0"/>

  <rect x="30" y="115" width="640" height="28" rx="4" fill="#FAFAFA" stroke="#e0e0e0" stroke-width="1"/>
  <text x="60" y="133" font-size="10" fill="#333">2. 查詢 Wiki</text>
  <text x="180" y="133" font-size="10" fill="#555">—</text>
  <rect x="315" y="121" width="80" height="16" rx="3" fill="#f5f5f5" stroke="#e0e0e0"/>
  <text x="355" y="133" text-anchor="middle" font-size="9" fill="#999">（截圖）</text>
  <rect x="435" y="121" width="60" height="16" rx="3" fill="#f5f5f5" stroke="#e0e0e0"/>
  <rect x="535" y="121" width="20" height="16" rx="3" fill="#f5f5f5" stroke="#e0e0e0"/>

  <rect x="30" y="148" width="640" height="28" rx="4" fill="white" stroke="#e0e0e0" stroke-width="1"/>
  <text x="60" y="166" font-size="10" fill="#333">3. TDD 開發</text>
  <text x="180" y="166" font-size="10" fill="#4CAF50">Agentic TDD</text>
  <rect x="315" y="154" width="80" height="16" rx="3" fill="#f5f5f5" stroke="#e0e0e0"/>
  <text x="355" y="166" text-anchor="middle" font-size="9" fill="#999">（截圖）</text>
  <rect x="435" y="154" width="60" height="16" rx="3" fill="#f5f5f5" stroke="#e0e0e0"/>
  <rect x="535" y="154" width="20" height="16" rx="3" fill="#f5f5f5" stroke="#e0e0e0"/>

  <rect x="30" y="181" width="640" height="28" rx="4" fill="#FAFAFA" stroke="#e0e0e0" stroke-width="1"/>
  <text x="60" y="199" font-size="10" fill="#333">7. 發 PR</text>
  <text x="180" y="199" font-size="10" fill="#7B1FA2">git</text>
  <rect x="315" y="187" width="80" height="16" rx="3" fill="#f5f5f5" stroke="#e0e0e0"/>
  <text x="355" y="199" text-anchor="middle" font-size="9" fill="#999">（截圖）</text>
  <rect x="435" y="187" width="60" height="16" rx="3" fill="#f5f5f5" stroke="#e0e0e0"/>
  <rect x="535" y="187" width="20" height="16" rx="3" fill="#f5f5f5" stroke="#e0e0e0"/>
</svg>